<svg xmlns="http://www.w3.org/2000/svg" fill="none" viewBox="0 0 162 48"><g clip-path="url(#a)"><path fill="#A6A6A6" d="M156.24 48H5.68A5.74 5.74 0 0 1 0 42.32V5.68C0 2.58 2.58 0 5.68 0h150.56c3.1 0 5.71 2.57 5.76 5.68v36.64a5.83 5.83 0 0 1-5.76 5.68Z"/><path fill="#000" d="M160.8 42.32a4.6 4.6 0 0 1-4.6 4.6H5.68a4.6 4.6 0 0 1-4.61-4.6V5.66a4.6 4.6 0 0 1 4.6-4.6h150.57a4.6 4.6 0 0 1 4.56 4.6v36.66Z"/><path fill="#3DDC84" fill-rule="evenodd" d="M46.58 28.88a1.4 1.4 0 0 1-1.27-.85 1.4 1.4 0 0 1 1-1.87 1.4 1.4 0 0 1 1.65 1.35c0 .76-.62 1.37-1.38 1.37Zm-15.18 0a1.4 1.4 0 0 1-1.27-.85 1.4 1.4 0 0 1 1-1.87 1.4 1.4 0 0 1 1.64 1.35c0 .75-.61 1.37-1.37 1.37Zm15.68-8.27 2.74-4.75a.59.59 0 0 0-.2-.78.59.59 0 0 0-.79.2l-2.78 4.82a17.25 17.25 0 0 0-14.12 0l-2.77-4.81a.58.58 0 0 0-.78-.21.58.58 0 0 0-.21.78l2.74 4.75a16.2 16.2 0 0 0-8.4 12.97h32.97a16.2 16.2 0 0 0-8.4-12.97Z" clip-rule="evenodd"/><path fill="#fff" fill-rule="evenodd" d="M121.2 17a1.6 1.6 0 0 1-.42-.08 1.34 1.34 0 0 1-.51-.3c-.26.24-.63.37-1.12.38h-4.13a1.36 1.36 0 0 1-.48-.1c-.54-.2-.82-.72-.82-1.28 0-.12.02-.25.04-.4.04-.25.1-.5.17-.75l.06-.18.65.21a6.62 6.62 0 0 0-.2.84l-.03.28c0 .3.14.61.46.67.07.02.13.02.16.02h4.1c.23.01.49-.03.66-.19.1-.1.13-.24.13-.38v-1.26h.69v1.25c-.03.39.33.57.67.58h1.54c.36 0 1.02 0 1.23-.39a.67.67 0 0 0 .06-.2h-.56a3.47 3.47 0 0 1-.45-.03 1.93 1.93 0 0 1-.25-.07 1.17 1.17 0 0 1-.82-1.18c0-.56.3-1.09.83-1.3a1.38 1.38 0 0 1 1.1.04c.36.18.61.53.74 1.03.06.26.09.55.09.88v.5c0 .25-.05.46-.14.65-.1.19-.25.34-.44.45-.32.2-.79.31-1.4.31h-1.6Zm2.18-3.27a.75.75 0 0 0-.48.17.67.67 0 0 0-.16.22c-.18.41 0 .81.45.89l.36.02h.56a2.79 2.79 0 0 0-.07-.63c-.08-.33-.28-.68-.66-.67Z" clip-rule="evenodd"/><path fill="#fff" d="M123.43 12.15a.57.57 0 0 1 0-1.13c.16 0 .3.06.4.17.11.1.17.24.17.4a.57.57 0 0 1-.57.56Zm3.3 4.8c-.41-.08-.74-.3-.86-.7a1.95 1.95 0 0 1-.08-.43 6.35 6.35 0 0 1-.02-.51v-3.5h.7v3.5l.01.51c.03.28.17.42.36.45.12.03.3.04.52.04h1.36c.21 0 .42-.1.52-.3a.72.72 0 0 0 .08-.36 4.77 4.77 0 0 0-.05-.46 10.83 10.83 0 0 0-.18-.95l.65-.2.08.35a12.95 12.95 0 0 1 .18 1.26c0 .24-.04.44-.12.6a1.2 1.2 0 0 1-.7.67c-.16.05-.31.08-.47.08h-1.35a3.68 3.68 0 0 1-.63-.05Z"/><path fill="#fff" fill-rule="evenodd" d="M94.35 13.86a1.27 1.27 0 0 1 .97.4c.4.4.45 1.01.26 1.53a1.4 1.4 0 0 1-.3.5c.19.02.38.02.6.02h1.5c.17 0 .31-.01.41-.05a.61.61 0 0 0 .23-.13.36.36 0 0 0 .1-.17.74.74 0 0 0 .03-.19v-1.23h.68v1.2c0 .34.25.54.57.57h.85c.28 0 .64-.05.7-.37a.88.88 0 0 0 .04-.29v-1.1h.68v1.09c0 .23.06.4.17.5.12.12.3.17.54.17.21-.01.4-.1.5-.31a.77.77 0 0 0 .07-.34v-1.11h.68v1.09c0 .23.05.4.17.51.1.1.3.16.54.16a.6.6 0 0 0 .4-.14.59.59 0 0 0 .14-.2.84.84 0 0 0 .06-.3v-1.12h.69v1.12c0 .23.07.39.18.49.12.1.3.15.55.15h.5a.28.28 0 0 0 .22-.1.91.91 0 0 0 .16-.27c.05-.12.09-.24.12-.37l.12-.43c.21-.64.58-1.18 1.32-1.18.23 0 .44.05.61.14.56.28.79.92.79 1.51 0 .24-.02.44-.06.6-.04.18-.1.32-.16.44a1 1 0 0 1-.22.27.94.94 0 0 1-.25.16.94.94 0 0 1-.24.08 1.31 1.31 0 0 1-.2.01c-.12 0-.23 0-.34-.03a2.16 2.16 0 0 1-.33-.1 3.51 3.51 0 0 1-.36-.17 31.45 31.45 0 0 1-.4-.21l-.02-.01a.96.96 0 0 1-.76.35h-.5c-.24 0-.44-.03-.62-.1a1.16 1.16 0 0 1-.45-.3l-.06.06a1.2 1.2 0 0 1-.89.34c-.45 0-.8-.13-1.05-.4a1.2 1.2 0 0 1-.42.3 1.4 1.4 0 0 1-.48.1h-.05c-.43 0-.76-.13-1-.38a.21.21 0 0 1-.05.05 1.5 1.5 0 0 1-1.04.33h-.76c-.22 0-.42-.03-.59-.1a.93.93 0 0 1-.4-.28c-.25.25-.63.38-1.12.38h-1.5c-.62 0-1.14-.06-1.56-.18-.24.07-.48.11-.73.14-.28.03-.6.04-.95.04h-.9a1.6 1.6 0 0 1-.6-.1.93.93 0 0 1-.4-.28c-.25.25-.62.38-1.12.38H88.4a1.5 1.5 0 0 1-.52-.09 1.33 1.33 0 0 1-.42-.27 1 1 0 0 1-.97.37c-.46-.1-.9-.34-1.31-.54l-.83-.43v3.36h-.68v-3.77l.66-.38c.21.12.43.24.64.34.03-.2.07-.4.12-.59.05-.17.1-.33.18-.47.23-.47.6-.71 1.11-.71.4 0 .79.18 1.03.5.28.35.4.87.36 1.36 0 .14.02.24.08.33a.66.66 0 0 0 .4.28l.18.02h1.2c.18 0 .31-.01.42-.05a.61.61 0 0 0 .23-.13.36.36 0 0 0 .1-.17.74.74 0 0 0 .02-.19v-1.23h.69v1.2c0 .1 0 .17.04.23a.5.5 0 0 0 .24.26c.09.04.19.07.28.08h1c.27 0 .5 0 .71-.02a1.45 1.45 0 0 1-.32-.5 1.51 1.51 0 0 1 0-1.14 1.4 1.4 0 0 1 1.32-.79Zm-.02 2.25c.44-.16.92-.7.65-1.18-.27-.49-1.05-.53-1.34-.01-.28.5.25 1.02.69 1.19Zm-8.77-.23c.07-.47.16-1.39.81-1.38.72-.02.82.94.68 1.47-.06.21-.23.42-.47.35-.35-.1-.69-.28-1.02-.44Zm23.27.57c-.2-.05-.38-.13-.56-.24l-.04-.02-.3-.15.1-.34c.08-.33.16-.84.51-1a.54.54 0 0 1 .25-.05.65.65 0 0 1 .28.05c.54.24.56 1.07.37 1.53a.47.47 0 0 1-.1.15c-.13.14-.33.12-.5.08Z" clip-rule="evenodd"/><path fill="#fff" d="M129.46 18.9a.52.52 0 0 0 .52-.52.52.52 0 0 0-.52-.52.52.52 0 0 0-.53.52.52.52 0 0 0 .53.52Zm-1.36 0a.52.52 0 0 0 .52-.52.52.52 0 0 0-.52-.52.52.52 0 0 0 0 1.04Zm2.46-.57v.69c.74 0 1.54 0 2.1-.59.38-.4.54-.94.54-1.62v-2.27h-.69v2.27c0 .5-.09.88-.35 1.16a1.1 1.1 0 0 1-.46.27c-.36.12-.76.1-1.15.1Zm4.6-1.3c.65.07 1.68.04 1.99-.65a.68.68 0 0 0 .07-.23 1.17 1.17 0 0 0-.03-.38 1.48 1.48 0 0 0-.1-.3 2.5 2.5 0 0 0-.17-.3c-.44-.65-.89-1.3-1.31-1.97l-.59.37 1.32 2c.1.13.18.28.19.45a.24.24 0 0 1-.02.08c-.02.05-.08.1-.17.14-.2.09-.43.12-.64.12h-.16a3.53 3.53 0 0 1-.75-.08 1.25 1.25 0 0 1-.3-.12l-.31-.17-.34.6.3.17c.3.18.67.25 1.01.28ZM99.73 32.1h3.43c.34 0 .67-.06 1-.17a2.65 2.65 0 0 0 1.54-1.44 4.3 4.3 0 0 0 .12-2.51 18.43 18.43 0 0 0-.34-1.75 5.94 5.94 0 0 0-.05-.24l-1.71.52.08.31.1.45c.1.5.22 1.02.27 1.54.04.32.07.7-.1 1a.93.93 0 0 1-.29.32.98.98 0 0 1-.57.16h-3.48c-.12 0-.25-.07-.4-.19-.56-.47-.96-1.14-1.36-1.74l-2.6-3.94-1.52.98 2.58 3.63c.15.24.5.6.36.9-.14.31-.5.44-.8.48a6.52 6.52 0 0 1-2.6-.3c-.32-.09-.62-.2-.92-.3l-.52 1.73c1.01.31 2.07.67 3.14.67.97 0 2.13-.18 2.8-.96.58.57 1.2.85 1.84.85Zm4.88 3.8a1.08 1.08 0 0 1-1.08-1.08 1.08 1.08 0 1 1 1.08 1.09Zm-3.04 0a1.08 1.08 0 0 1-1.08-1.08 1.08 1.08 0 1 1 1.08 1.09Z"/><path fill="#fff" fill-rule="evenodd" d="M108.45 34.2c.39 0 .73-.02 1.03-.05a3.33 3.33 0 0 0 1.9-.6c.2-.16.35-.35.45-.57.1-.22.17-.51.19-.88-.62 0-1.25.04-1.86-.06a3.34 3.34 0 0 1-.73-.2c-.47-.19-.9-.5-1.2-.92a3.22 3.22 0 0 1-.5-1.82c0-.33.03-.63.1-.88a3.4 3.4 0 0 1 .84-1.6 3.02 3.02 0 0 1 2.18-.91c1.06 0 1.8.38 2.27 1.02.49.64.7 1.54.7 2.57v2.58c0 .73-.1 1.33-.32 1.82-.23.5-.57.94-1 1.27-1.14.9-2.65 1.04-4.05 1.04V34.2Zm2.4-6.68c-.41 0-.74.13-.98.38s-.37.66-.37 1.2c0 .22.05.4.13.55.26.45.77.64 1.27.64h1.12v-.99c0-.28-.02-.51-.07-.7a1.85 1.85 0 0 0-.17-.5 1.06 1.06 0 0 0-.93-.58Z" clip-rule="evenodd"/><path fill="#fff" d="M120 31.66a4.63 4.63 0 0 1-1.27 3.17c-1.14 1.1-2.64 1.18-4.13 1.18V34.2c.7 0 1.43.05 2.1-.15.35-.1.63-.25.84-.47.44-.42.65-1.09.65-2.08v-4.43H120v4.59Zm8.68.44c-.65 0-1.26-.28-1.85-.85a2.1 2.1 0 0 1-.57.47 4.6 4.6 0 0 1-2.78.45 5.8 5.8 0 0 1-.65-.1 22 22 0 0 1-1.93-.53l.52-1.74c.3.12.6.22.92.32.83.22 1.73.42 2.6.3.17-.03.33-.08.48-.16a.63.63 0 0 0 .31-.33.42.42 0 0 0 .04-.16c-.01-.27-.26-.52-.4-.74l-2.57-3.63 1.52-.98 2.6 3.94c.42.63.92 1.37 1.36 1.74.29.24.63.18.99.18v.01h1.68a.98.98 0 0 0 .58-.16.92.92 0 0 0 .29-.33c.08-.15.12-.35.12-.6 0-.12 0-.24-.03-.4a14.4 14.4 0 0 0-.37-1.98l-.08-.31 1.71-.52.06.24c.24.95.47 1.98.47 2.96 0 .83-.27 1.64-.9 2.2a2.66 2.66 0 0 1-.9.54c-.33.11-.66.17-1 .17h-2.22Zm3.06-7.9c.45 0 .88-.27 1.05-.7a1.14 1.14 0 0 0-1.49-1.48 1.15 1.15 0 0 0-.7 1.05c-.01.62.52 1.13 1.14 1.13Zm3.67 7.9h1.81V21.61h-1.8v10.5Zm-17.64-17.92a.53.53 0 0 0 .52-.52.52.52 0 0 0-.52-.52.52.52 0 0 0-.52.52.52.52 0 0 0 .52.52Zm-1.36 0a.52.52 0 0 0 .53-.52.52.52 0 0 0-.53-.52.52.52 0 0 0-.52.52.52.52 0 0 0 .52.52Zm-17.58-.59a.53.53 0 0 0 .52-.52.52.52 0 0 0-.52-.52.52.52 0 0 0-.52.52.52.52 0 0 0 .52.52Zm-1.35 0a.52.52 0 0 0 .52-.52.52.52 0 0 0-.52-.52.52.52 0 0 0 0 1.04Zm-2.53-.52a.53.53 0 0 0 .52-.52.52.52 0 0 0-.52-.52.52.52 0 0 0-.53.52.52.52 0 0 0 .53.52Zm-1.36 0a.52.52 0 0 0 .53-.52.52.52 0 0 0-.53-.52.52.52 0 0 0 0 1.04Zm-2.76 5.85a.53.53 0 0 0 .52-.52.52.52 0 0 0-.52-.52.52.52 0 0 0-.52.52.52.52 0 0 0 .52.52Zm-1.35 0a.52.52 0 0 0 .52-.52.52.52 0 0 0-.52-.52.52.52 0 0 0 0 1.04Z"/></g><defs><clipPath id="a"><path fill="#fff" d="M0 0h162v48H0z"/></clipPath></defs></svg>