<svg xmlns="http://www.w3.org/2000/svg" width="64" height="64"><g fill="none" fill-rule="evenodd"><path d="M0 0h64v64H0z"/><g fill-rule="nonzero" transform="translate(3.4 13.22)"><path fill="#E4E5EE" d="m2.41 31.68 3.64 2.82c3.84 2.84 8.37 4.03 13.55 1.83L54.58 21.4a1.3 1.3 0 0 0 .27-2.23L41.77 9.36.44 27c-1.25.53.45 3.37 1.97 4.68z"/><ellipse cx="21.76" cy="31.34" fill="#36324F" rx="4.97" ry="2.96" transform="rotate(-56.47 21.76 31.34)"/><ellipse cx="22.41" cy="31.85" fill="#413C59" rx="4.2" ry="2.44" transform="rotate(-56.31 22.41 31.85)"/><ellipse cx="22.33" cy="31.99" fill="#555173" rx="3.36" ry="2.04" transform="rotate(-56.25 22.33 31.99)"/><ellipse cx="22.35" cy="32.15" fill="#A4A3C0" rx="2.82" ry="1.75" transform="rotate(-56.22 22.35 32.15)"/><ellipse cx="22.35" cy="32.15" fill="#CDCCDF" rx="2.09" ry="1.3" transform="rotate(-56.22 22.35 32.15)"/><ellipse cx="48.02" cy="20.38" fill="#36324F" rx="4.73" ry="3.01" transform="rotate(-56.31 48.02 20.38)"/><ellipse cx="48.58" cy="20.69" fill="#413C59" rx="4.2" ry="2.44" transform="rotate(-56.31 48.58 20.69)"/><ellipse cx="48.49" cy="20.82" fill="#555173" rx="3.36" ry="2.04" transform="rotate(-56.25 48.5 20.82)"/><ellipse cx="48.52" cy="20.98" fill="#A4A3C0" rx="2.82" ry="1.75" transform="rotate(-56.22 48.52 20.98)"/><ellipse cx="48.52" cy="20.98" fill="#CDCCDF" rx="2.09" ry="1.3" transform="rotate(-56.22 48.52 20.98)"/><path fill="#433E5B" d="M12.43 11.3a.76.76 0 0 0-.3-.75c-.37-.33-1.26-1.5-1-1.98s.94-.14 1.13.08c.18.21 1.13 1.16 1.1 1.5-.05.34-.28.43-.32.7a.78.78 0 0 1-.3.48l-.3-.03z"/><path fill="#D8D8E8" d="M12.27 8.66c-.17-.2-.74-.5-1.05-.17.02.39.17.76.43 1.05.38.42.84 1 1.3 1.05h.22a.9.9 0 0 0 .2-.43c.04-.34-.91-1.28-1.1-1.5z"/><path fill="#D8D8E8" d="m56.79 14.3-.39-.48.4-3.41h-.09l.14-1.12a1.32 1.32 0 0 0-.28-.77 26.02 26.02 0 0 0-5.88-5.47C47.37.82 45.55.08 45.55.08s-.26-.2-1.24.05c-.99.26-3.38 1.09-3.38 1.09a1.53 1.53 0 0 1-.62.05c-.53 0-3.67-.27-6.2-.13-2.55.14-6.48 1.44-10.56 3.08a33.24 33.24 0 0 0-7.35 4.24l-4.28 3.24-4.43 2.38s-2.4 1.37-3.28 1.98a10.74 10.74 0 0 0-1.83 1.8l-.07.16s-.93 1.51-1.02 2.12c-.1.6-.63 2.62-.74 3.2-.1.59-.3 2.28-.3 2.28a2.56 2.56 0 0 0 .55 1.8 31.38 31.38 0 0 0 3.36 3.4c1.22.99 5.04 4.04 8.96 4.64 3.92.6 5.12-.66 5.12-.66l.07-.02a1.23 1.23 0 0 1 0-.39l.12-.99a6.7 6.7 0 0 1 4.01-5.35 2.1 2.1 0 0 1 2.9 2.18l-.18 1.51-.03.21L39.03 26l5.3-2.27.26-.11a1.32 1.32 0 0 1-.03-.45l.12-1a6.7 6.7 0 0 1 4.02-5.35A2.1 2.1 0 0 1 51.6 19l-.18 1.52-.03.19a21.16 21.16 0 0 0 2.8-1.53c1.26-.85 2.15-1.65 2.35-2.74.16-1.01.25-2.14.25-2.14z"/><path fill="#000" d="m56.41 13.82.4-3.41h-.1l.14-1.12a1.32 1.32 0 0 0-.28-.77l-.54-.66c-.4-.04-1.4.44-1.72.64-3.08 1.66-5.26 1.96-9.02 1.75-3.76-.2-6.76 1.33-8.44 1.99-1.69.66-3.8 2.18-4.94 3.01-2.26 1.86-4.59 6.18-5.41 7.07-.83.9-3.87 1.6-8.3 2.98a40.53 40.53 0 0 0-7.13 2.87l-.84 6.46a12.67 12.67 0 0 0 2.9.85c3.92.6 5.11-.66 5.11-.66l.07-.03a1.23 1.23 0 0 1 0-.38l.12-1a6.7 6.7 0 0 1 4.01-5.35 2.1 2.1 0 0 1 2.9 2.18l-.17 1.51c0 .08-.02.15-.04.22L39.03 26l5.3-2.27.26-.11a1.32 1.32 0 0 1-.03-.45l.12-.99a6.7 6.7 0 0 1 4.02-5.35A2.1 2.1 0 0 1 51.6 19l-.18 1.52-.03.2a21.16 21.16 0 0 0 2.8-1.54c1.27-.85 2.15-1.65 2.35-2.74.16-1.03.26-2.15.26-2.15l-.39-.47z" opacity=".04"/><path fill="#000" d="m47.1 15.18-9.22 4.37-10.5 4.89-9.17 4.54-.53 6.17c.24-.1.47-.23.66-.4l.06-.02a1.23 1.23 0 0 1 0-.39l.12-.99A6.7 6.7 0 0 1 22.54 28a2.1 2.1 0 0 1 2.9 2.18l-.18 1.51-.03.22 13.9-5.95 5.3-2.28.25-.1a1.32 1.32 0 0 1-.02-.45l.12-1a6.68 6.68 0 0 1 4.01-5.35 2.1 2.1 0 0 1 2.9 2.18l-.18 1.52a1.86 1.86 0 0 1-.03.19 20.56 20.56 0 0 0 2.81-1.53c1.26-.86 2.14-1.66 2.35-2.74.2-1.1.26-2.16.26-2.16l-.4-.48.4-3.42h-.09v-.13l-9.7 4.97z" opacity=".12"/><path fill="#000" d="M5.21 27.21a22.38 22.38 0 0 1-3.83-3.88c-.47-.7-.35-2.01-.35-2.01-.18.78-.4 1.65-.47 2.02-.11.58-.3 2.28-.3 2.28a2.57 2.57 0 0 0 .54 1.8 31.7 31.7 0 0 0 3.36 3.4c.92.75 3.3 2.64 6.08 3.8l.54-4.04C9.18 29.92 6.34 28 5.2 27.2z" opacity=".04"/><path fill="#000" d="M17.8 30.13a.9.9 0 0 1-.17.15c-.4.33-1.47 1.15-2.48 1.11a4.69 4.69 0 0 1-.86-.13 13.66 13.66 0 0 1-3.07-.5c-1.46-.45-4.76-2.68-6-3.54a22.22 22.22 0 0 1-3.82-3.87c-.48-.71-.36-2.03-.36-2.03-.19.78-.41 1.65-.47 2.02l-.07.39c.4.56.82 1.1 1.28 1.61a21.93 21.93 0 0 0 3.11 3.13c1.08.82 4.53 3.3 5.73 3.54 1.2.23.55.24 2.65.66 2.09.42 1.5.66 1.5.66l1.92-.11 1.21-.52.33-3.68a9.2 9.2 0 0 1-.44 1.1z" opacity=".12"/><path fill="#000" d="M1.3 21.81a3.82 3.82 0 0 1-.16-.92l-.1.44c.07.17.15.33.25.48z" opacity=".12"/><path fill="#413C59" d="m34.9 1.37 5.53.22c.48.07.96.2 1.4.4.72.33 3.38 1.55 4.53 2.42 1.16.87 4.24 3.64 4.84 4.91a5.69 5.69 0 0 1-2.39.76c-.84.06-1.69.04-2.52-.06 0 0-3.5-3.38-5.67-4.9-2.17-1.53-5.73-3.75-5.73-3.75z"/><path fill="#4D4B61" d="M27.11 22.76s3.17-5.07 4.96-6.78 4.3-2.82 5.02-3.18c.71-.36 3.65-1.63 5.29-1.8 1.32-.12 3.42.18 4.74.43a.61.61 0 0 1 .41.89l-.52 1a.44.44 0 0 1-.19.17l-19.7 9.27z"/><path fill="#413C59" d="M19.93 6.46a.14.14 0 0 0-.17-.02c-.76.5-5.18 3.5-6.4 4.72-.5.47-1.04.77-.9 2.12.14 1.36 1.71 3.43 3.75 5.11 2.04 1.68 5.32 3.64 8.8 4 .59.12 1.18-.11 1.52-.6.51-.64 2.87-4.06 2.87-4.06a21.52 21.52 0 0 1 1.71-2.11.46.46 0 0 0-.07-.7c-1.32-.88-4.8-2.75-6.6-4.27a59.22 59.22 0 0 1-4.5-4.2z"/><path fill="#EBEBF3" d="m12.1 30.05-1.42-1.62.4-.29s.84.55 2.97.8c1.96.21 3.2.2 3.97-.03a.1.1 0 0 1 .12.12c-.08.4-.25.77-.51 1.08a2.48 2.48 0 0 1-1.93.66 16.63 16.63 0 0 1-3.34-.56.6.6 0 0 1-.26-.17zM1.32 20c.1.73.27 1.45.53 2.14l.8.33.11-.6a3.8 3.8 0 0 1-.8-1.98 6.66 6.66 0 0 1 .2-1.66A9.92 9.92 0 0 0 1.32 20z"/><path fill="#D8D8E8" d="M1.03 21.32s-.12 1.32.35 2.02c.48.7 2.6 3.02 3.83 3.88 1.24.86 4.54 3.09 6 3.53 1.38.38 2.82.55 4.25.49 1.03-.06 2.34-1.14 2.34-1.14s-1.22 1.6-6.49-.26c-.76-.3-4.81-2.65-5.62-3.54-.8-.88-4.06-3.46-4.66-4.98z"/><path fill="#EBEBF3" d="m13.26 32.65-.56.79c.7.16 1.42.28 2.15.36.88.01 1.77-.07 2.64-.25l-.57-.8a7.64 7.64 0 0 1-3.66-.1z"/><path fill="#423D5A" d="M.32 25.05s.12 1.32.5 1.65l.18-.16s1.92 2.2 3.16 3.14c1.25.96 3.78 3.04 5.99 3.97.09.2.2.51.2.51 1.13.4 2.3.66 3.48.82 1.5.12 3.12.04 3.86-.4a1.37 1.37 0 0 1-.03.28 9.35 9.35 0 0 1-3.85.37 22.02 22.02 0 0 1-3.56-.86s-3.83-1.98-6.47-4.36C1.13 27.63.32 26.72.25 25.47l.07-.42z"/><path fill="#C63838" d="m55.35 13.45.9-2.34c.15-.27.33-.5.56-.7l-.3 2.53-1.16.51z"/><path fill="#B8B7D0" d="M1.84 22.13c.12.4.35.76.66 1.04l.13-.7-.79-.34zm8.84 6.3 1.47 1.66s-.15.08-.8-.23c-.66-.3-1.54-.81-1.54-.81l.87-.62z"/><path fill="#8B8BA0" d="M50.95 17.29a.04.04 0 0 1-.04-.03.05.05 0 0 1 .02-.06l.6-.38 2.71-1.6c.45-.25.78-.69.91-1.2l.16-.58.9-2.35c.15-.27.34-.51.56-.73a.05.05 0 1 1 .07.08 3.16 3.16 0 0 0-.55.69l-.9 2.34-.14.58a2.06 2.06 0 0 1-.96 1.26l-2.71 1.59-.6.37-.03.02zM26.53 30.74a.22.22 0 0 1-.1-.02.24.24 0 0 1-.14-.15l-.06-.2a.07.07 0 0 1 0-.02l.99-5.66c.02-.14.02-.28 0-.42l-.18-1.5a.05.05 0 0 1 .04-.06.05.05 0 0 1 .06.04l.17 1.51a1.53 1.53 0 0 1 0 .45l-1 5.65.07.18.08.1h.13l15.9-6.84c.24-.1.43-.29.55-.52l3.85-7.83a.9.9 0 0 0 .1-.48l-.12-1.53a.05.05 0 0 1 .1 0l.12 1.53a1 1 0 0 1-.1.53l-3.86 7.83a1.18 1.18 0 0 1-.59.56l-15.9 6.84a.24.24 0 0 1-.11.01z"/><path fill="#8B8BA0" d="M36.76 26.36a.05.05 0 0 1-.05-.04l-.11-.6a.47.47 0 0 1 0-.19l1.13-5.8a.68.68 0 0 0-.02-.33l-.36-1.45a.05.05 0 0 1 .04-.06.05.05 0 0 1 .05.04l.37 1.44c.03.13.04.26.02.4l-1.14 5.8a.41.41 0 0 0 0 .15l.11.6a.05.05 0 0 1-.03.06l-.01-.02zm-17.91 4.17-1.23-.37a.05.05 0 0 1-.04-.06.05.05 0 0 1 .06-.03l1.24.37a.05.05 0 0 1 .03.06.05.05 0 0 1-.06.03zm-4.8-1.55a.04.04 0 0 1-.04 0 .05.05 0 0 1 0-.07 4.16 4.16 0 0 1 1.48-1.1l7.94-3.17s1.32-.42 1.48-1.06c.1-.38.12-.78.06-1.16a.05.05 0 0 1 .03-.06.05.05 0 0 1 .06.04c.07.4.05.81-.06 1.2-.19.7-1.48 1.11-1.54 1.13l-7.93 3.17a4.23 4.23 0 0 0-1.44 1.07.05.05 0 0 1-.05 0zm-12.1-9.04h-.02a.05.05 0 0 1-.02-.07 5.1 5.1 0 0 1 1.52-1.81c1-.7 8.6-6.17 8.67-6.22a.05.05 0 0 1 .05.08c-.07.05-7.68 5.52-8.67 6.21A5.07 5.07 0 0 0 2 19.91a.05.05 0 0 1-.05.03z"/><path fill="#8B8BA0" d="m12.41 12.92-1.43-.17a.05.05 0 0 1-.04-.06.05.05 0 0 1 .05-.04l1.44.17a.05.05 0 0 1 .04.06.05.05 0 0 1-.06.04zm7.74-6.18a.06.06 0 0 1-.04-.02.05.05 0 0 1 .02-.06c.03-.02 3.57-2.1 6.73-3.15 3.64-1.23 6.39-1.87 8.37-1.99a.05.05 0 0 1 .05.05.05.05 0 0 1-.05.05c-1.98.1-4.7.74-8.34 1.96a42.7 42.7 0 0 0-6.71 3.14l-.02.02zm10.89 8.22a.04.04 0 0 1-.04 0 .04.04 0 0 1 0-.07c0-.02 1.8-1.82 5.39-3.38 3.94-1.72 6.05-1.96 7.6-1.99 1.7 0 1.92.08 1.95.1a.05.05 0 0 1 0 .07.05.05 0 0 1-.07 0s-.2-.09-1.88-.08c-1.53 0-3.64.26-7.56 1.97-3.57 1.55-5.34 3.34-5.35 3.36a.04.04 0 0 1-.04.02zm20.1-5.7a.04.04 0 0 1-.03-.02.05.05 0 0 1 .01-.07l3.64-1.98c.18-.1.39-.16.6-.17a.05.05 0 0 1 0 .1 1.27 1.27 0 0 0-.55.15l-3.63 1.99h-.03zm-9.81-7.42a.05.05 0 0 1-.05-.04.05.05 0 0 1 .03-.06L45.8.67c.3-.05.6-.09.9-.1a.05.05 0 0 1 .03.05.05.05 0 0 1-.05.05c-.3.01-.58.04-.86.1l-4.48 1.07h-.01z"/><path fill="#555361" d="M36.69 18.26s.18-4-.08-5.24l.38-.18s.68 3.02.4 5.08l-.7.34z"/><path fill="#555361" d="m37.4 17.92.64-.3s-.22-4.2-.56-5.02l-.5.24s.7 3.02.42 5.08zm-.34.17.21-.1z"/><path fill="#000" d="m48.8 16.2-.48.2a6.88 6.88 0 0 0-4.14 5.51l-.24 1.99.39-.17.26-.11a1.32 1.32 0 0 1-.03-.45l.12-.99a6.7 6.7 0 0 1 4.02-5.35A2.1 2.1 0 0 1 51.6 19l-.18 1.5c0 .08-.02.14-.03.2l.52-.24.21-1.8a2.4 2.4 0 0 0-3.32-2.48zM25.88 29.96a2.4 2.4 0 0 0-3.31-2.5l-.49.22a6.9 6.9 0 0 0-4.14 5.51l-.23 1.95a2 2 0 0 0 .55-.35l.06-.03a1.23 1.23 0 0 1 0-.38l.12-1a6.7 6.7 0 0 1 4.02-5.35 2.1 2.1 0 0 1 2.9 2.18l-.18 1.52c0 .07-.02.14-.03.2l.54-.22.19-1.75z" opacity=".12"/><path fill="#4D4B61" d="M19.76 6.77s-4.82 3.23-6.07 4.47c-.47.43-.97.71-.84 1.98.14 1.26 1.85 3.33 3.75 4.9 1.9 1.55 4.96 3.37 8.2 3.73a1.38 1.38 0 0 0 1.42-.56c.48-.6 2.68-3.79 2.68-3.79s1.43-2 1.98-2.29c-.46-.5-4.63-2.64-6.61-4.31a59.54 59.54 0 0 1-4.51-4.13z"/><path fill="#433E5B" d="M28.22 22.86a.21.21 0 0 1 0-.33c.23-.18.44-.37.63-.59.19-.27.15-.61.24-.8.1-.18.5-.68 1.03-.57.53.1 1.99.75 2.18 1.51.2.77-1.42.45-1.81.4-.4-.05-.91-.26-1.11-.21a2.6 2.6 0 0 0-.83.58.24.24 0 0 1-.33 0z"/><path fill="#D8D8E8" d="M30.13 20.57a1.03 1.03 0 0 0-.99.49c.07.38.3.53 1.1.91a3.36 3.36 0 0 0 2.08.25.53.53 0 0 0 0-.14c-.2-.76-1.65-1.4-2.19-1.51z"/><path fill="#423D5A" d="M1.77 25.33a.7.7 0 0 0 0 .67c.11.2.26.38.43.53a26.07 26.07 0 0 0 2.57 2.4c1.5 1.1 4.74 3.3 5.43 3.47a.86.86 0 0 0 .41-.4c-1.68-.9-3.39-1.77-4.92-2.9a21.26 21.26 0 0 1-3.92-3.78v.01zm.99-3.46-.25 1.3c.54.6 1.1 1.2 1.67 1.79.96.96 2.03 1.8 3.19 2.5.48.3.95.63 1.43.95.08.05.94.69 1 .66l1.27-.92c-.06.05-.87-.47-.95-.5-.58-.34-1.16-.65-1.74-1a22.11 22.11 0 0 1-3.27-2.42 36.77 36.77 0 0 1-2.35-2.36z"/><path fill="#4D4B61" d="m35.09 1.48 5.31.24a4.94 4.94 0 0 1 1.38.38c.7.33 3.29 1.52 4.41 2.37 1.13.84 4.14 3.56 4.73 4.8-.68.4-1.45.65-2.25.71-.82.06-1.64.04-2.46-.05 0 0-3.42-3.3-5.53-4.8-2.12-1.48-5.6-3.65-5.6-3.65z"/><path fill="#30303F" d="M37.4 17.97a.05.05 0 0 1-.04-.05c.12-1.2-.4-5.04-.41-5.08a.05.05 0 0 1 .07-.04l.02.03c0 .04.53 3.88.4 5.1a.04.04 0 0 1-.04.04z"/></g></g></svg>