<svg xmlns="http://www.w3.org/2000/svg" width="200" height="200"><g fill="none" fill-rule="evenodd"><path d="M0 0h200v200H0z"/><g transform="translate(40 101)"><path fill="#919BAA" fill-rule="nonzero" d="m3 33.38 75.82 31.95a11.59 11.59 0 0 0 11.47-1.42l27.9-21.05a2.71 2.71 0 0 0-.59-4.68L34.67 3.28 2.3 27.77a3.25 3.25 0 0 0 .7 5.6z" opacity=".32"/><path fill="#F1F4F5" fill-rule="nonzero" d="m3.67 31.78 76.8 32.35a7.95 7.95 0 0 0 7.88-.99l27.88-21a5.34 5.34 0 0 0-1.15-9.19L38.92.85a8.06 8.06 0 0 0-8.01 1L2.59 23.19a5 5 0 0 0 1.08 8.59z"/><path fill="#3A304D" fill-rule="nonzero" d="M3.1 22.82c-2.07 1.56-1.8 3.68.6 4.69l76.02 32.03a9.13 9.13 0 0 0 8.14-1.01l27.74-20.94c2.08-1.56 1.82-3.68-.58-4.69L38.98.85a9.13 9.13 0 0 0-8.15 1L3.11 22.83z"/><path fill="#EAF2FF" fill-rule="nonzero" d="M39.33 1.98A9.12 9.12 0 0 0 31.17 3L5.93 21.95c-2.07 1.57-1.82 3.67.58 4.68l72.87 30.7a9.13 9.13 0 0 0 8.14-1l25.17-18.99c2.07-1.56 1.81-3.68-.6-4.69L39.34 1.98z"/><path fill="#3A304D" fill-rule="nonzero" d="m9.95 18.86 1.05.45c1.17.5 2.51.33 3.53-.43L29.2 7.8a1.16 1.16 0 0 0-.25-2l-1.08-.46L9.95 18.86z"/><circle cx="109.68" cy="44.98" r="1" fill="#6C667F" fill-rule="nonzero" transform="rotate(-66.98 109.68 44.98)"/><circle cx="111.16" cy="43.88" r="1" fill="#6C667F" fill-rule="nonzero" transform="rotate(-66.98 111.16 43.88)"/><circle cx="112.66" cy="42.76" r="1" fill="#6C667F" fill-rule="nonzero" transform="rotate(-66.98 112.66 42.76)"/><circle cx="114.13" cy="41.64" r="1" fill="#6C667F" fill-rule="nonzero" transform="rotate(-66.98 114.13 41.64)"/><circle cx="115.61" cy="40.52" r="1" fill="#6C667F" fill-rule="nonzero" transform="rotate(-66.98 115.6 40.52)"/><circle cx="89.82" cy="60" r="1" fill="#6C667F" fill-rule="nonzero" transform="rotate(-66.98 89.82 60)"/><circle cx="91.28" cy="58.89" r="1" fill="#6C667F" fill-rule="nonzero" transform="rotate(-66.98 91.28 58.89)"/><circle cx="92.77" cy="57.77" r="1" fill="#6C667F" fill-rule="nonzero" transform="rotate(-66.98 92.77 57.77)"/><circle cx="94.27" cy="56.64" r="1" fill="#6C667F" fill-rule="nonzero" transform="rotate(-66.98 94.27 56.64)"/><circle cx="95.75" cy="55.53" r="1" fill="#6C667F" fill-rule="nonzero" transform="rotate(-66.98 95.75 55.53)"/><path fill="#6C667F" fill-rule="nonzero" d="m104.32 48.8-3.3 2.5c-.32.27-.5.7-.47 1.12 0 .39.34.51.65.28l3.3-2.5c.32-.28.5-.7.47-1.12-.05-.4-.34-.53-.65-.29z"/><path fill="#FFF" fill-rule="nonzero" d="m27.97 40.07-4.78-2.04h-.07c-.36-.15-.6 0-.56.43.08.42.35.79.74.97l4.78 2.04h.06c.35.15.62 0 .57-.42a1.38 1.38 0 0 0-.74-.98z"/><path fill="#D1D3D3" fill-rule="nonzero" d="m9.67 32.28-2.2-.94c-.26-.11-.46 0-.42.32.06.33.26.6.56.74l2.21.95c.28.12.47 0 .43-.32a1.03 1.03 0 0 0-.58-.75z"/><path fill="#EF7389" fill-rule="nonzero" d="m9.45 32.44-1.75-.75c-.14 0-.23 0-.22.16a.54.54 0 0 0 .28.36l1.76.75c.14 0 .23 0 .22-.16a.49.49 0 0 0-.3-.36z"/><path fill="#FFF" fill-rule="nonzero" d="M20.17 36.74h-.06l-4.78-2.11c-.36-.15-.61 0-.56.42.07.43.34.8.73.98l4.78 2.05h.07c.35.15.6 0 .56-.42a1.38 1.38 0 0 0-.74-.92z"/><path fill="#F1F4F5" fill-rule="nonzero" d="M27.7 40.37h-.07l-4.77-2.04h-.06c-.36-.15-.61 0-.56.43.07.42.35.79.74.97l4.78 2.04h.06c.35.15.61 0 .56-.42a1.38 1.38 0 0 0-.69-.98zm-7.8-3.34h-.07l-4.78-2.05c-.36-.15-.6 0-.56.42.07.43.35.8.74.98l4.78 2.05c.35.15.6 0 .56-.42a1.43 1.43 0 0 0-.67-.98z"/><path fill="#FFF" fill-rule="nonzero" d="M51.37 10.3a5.58 5.58 0 0 0-5.01.63L25.09 27a1.53 1.53 0 0 0 .35 2.87l42.54 17.9c1.67.62 3.53.39 5-.6L94.27 31.1a1.53 1.53 0 0 0-.37-2.88L51.37 10.31z"/><path stroke="#000" stroke-width=".1" d="M45.85 33.38c-.6.43-.53 1.04.16 1.32l2.5 1.08a2.6 2.6 0 0 0 2.33-.29l18.67-14a.71.71 0 0 0-.17-1.34l-2.5-1.06a2.58 2.58 0 0 0-2.31.28l-18.68 14zm6.2 2.79a.71.71 0 0 0 .17 1.34l2.5 1.07a2.62 2.62 0 0 0 2.31-.28l18.58-14.02a.71.71 0 0 0-.17-1.34l-2.5-1.07a2.62 2.62 0 0 0-2.32.28L52.05 36.17z"/><path fill="#EE6078" fill-rule="nonzero" d="M65.65 41.62a.71.71 0 0 0 .17 1.34l2.5 1.08a2.62 2.62 0 0 0 2.31-.29L89.2 29.74a.71.71 0 0 0-.16-1.34l-2.5-1.08a2.64 2.64 0 0 0-2.33.29L65.65 41.62z"/><path fill="#000" fill-rule="nonzero" d="M93.5 49.64c-.16.13-.14.28 0 .35.2.08.42.05.6-.07l9.87-7.4a.19.19 0 0 0 0-.36.71.71 0 0 0-.62.08l-9.86 7.4z"/><ellipse cx="45.85" cy="22.48" fill="#EE6078" fill-rule="nonzero" opacity=".48" rx="7.33" ry="4.23" transform="rotate(-7.09 45.85 22.48)"/></g></g></svg>