<svg xmlns="http://www.w3.org/2000/svg" width="48" height="49" fill="none"><g clip-path="url(#a)"><path fill="#fff" d="M0 4a4 4 0 0 1 4-4h40a4 4 0 0 1 4 4v40a4 4 0 0 1-4 4H4a4 4 0 0 1-4-4V4Z"/></g><path fill="#A62626" fill-rule="evenodd" d="M19.18 27.5h-.14a.95.95 0 0 1-.8-1.08c.64-4.16.85-10.8.85-10.84.04-.51.44-.93.98-.91.51.02.9.44.9.96 0 .28-.22 6.8-.86 11.07a.93.93 0 0 1-.93.8Zm13.38 1.72a.92.92 0 0 1-.88-.65.92.92 0 0 1 .6-1.17c4.42-1.4 4.49-2.48 4.51-3.06.05-.91-.65-2.08-.93-2.48a.94.94 0 1 1 1.51-1.1c.14.2 1.4 1.94 1.29 3.7-.12 2.12-1.75 3.43-5.82 4.74h-.14l-.14.02Zm-12.68 3.3a.87.87 0 0 1-.72-.36.91.91 0 0 1 .16-1.3 20.36 20.36 0 0 0 4.04-4.07 2.45 2.45 0 0 1-1.21-1.17c-.24-.53-.38-1.42.44-2.61 1.17-1.73 2.34-2.13 2.78-2.22.6-.12 1.2.23 1.35.82.12.42.4 1.75-.44 3.78 1.12-.02 2-.33 2.69-.89a4.18 4.18 0 0 0 1.37-2.85.95.95 0 0 1 .96-.9c.52.01.91.43.91.95 0 .1-.09 2.6-2.03 4.23-1.21 1.02-2.87 1.47-4.88 1.3a21.85 21.85 0 0 1-4.83 5.07.94.94 0 0 1-.59.21Zm5.07-9.44c-.26.2-.54.51-.84.98-.3.46-.33.72-.3.8.04.1.28.23.5.32.45-.89.6-1.59.64-2.1Zm.23 6.56c.03.51.45.91.94.91h.04c.07 0 1.64-.05 3.88-.56.51-.12.84-.6.73-1.12a.94.94 0 0 0-1.13-.73c-2.07.45-3.55.52-3.57.52a.94.94 0 0 0-.89.98Zm-15.67 2.5c.17.23.47.37.75.37.19 0 .37-.04.56-.16 5.93-4.32 6.17-9.97 6.17-10.2 0-.52-.4-.94-.92-.97a.94.94 0 0 0-.95.92c0 .18-.24 4.97-5.4 8.73a.94.94 0 0 0-.2 1.3Z" clip-rule="evenodd"/><defs><clipPath id="a"><path fill="#fff" d="M0 4a4 4 0 0 1 4-4h40a4 4 0 0 1 4 4v40a4 4 0 0 1-4 4H4a4 4 0 0 1-4-4V4Z"/></clipPath></defs></svg>