<svg xmlns="http://www.w3.org/2000/svg" width="162" height="48" fill="none"><g clip-path="url(#a)"><path fill="#A6A6A6" d="M156.24 48H5.676A5.688 5.688 0 0 1 0 42.324V5.676A5.676 5.676 0 0 1 5.676 0H156.24A5.762 5.762 0 0 1 162 5.676v36.648A5.772 5.772 0 0 1 156.24 48Z"/><path fill="#000" d="M160.8 42.324a4.595 4.595 0 0 1-4.596 4.596H5.676a4.608 4.608 0 0 1-4.608-4.596V5.664a4.608 4.608 0 0 1 4.608-4.596H156.24a4.598 4.598 0 0 1 4.56 4.596v36.66Z"/><path fill="#fff" d="m59.672 30.312 1.512-3.816h4.356l-2.064-5.784 2.58-6.54 7.404 19.656H68l-1.2-3.516h-7.128ZM55.016 33.828l7.932-19.656h-5.256L52.268 26.88l-3.852-12.708h-4.044l-4.14 12.708-2.916-5.796-2.64 8.136 2.724 4.608h5.172l3.744-11.388 3.6 11.388h5.1ZM26.24 27.084h3.24a9.167 9.167 0 0 0 2.616-.336l.84-2.58 2.34-7.2a5.681 5.681 0 0 0-.612-.804 6.732 6.732 0 0 0-5.268-1.992H21.26v19.656h4.98v-6.744Zm4.284-8.4a2.568 2.568 0 0 1 .708 1.896 2.736 2.736 0 0 1-.624 1.896 3.23 3.23 0 0 1-2.496.78H26.24V18h1.884a3.276 3.276 0 0 1 2.4.696v-.012ZM128.656 16.258v.797h-.269a1.718 1.718 0 0 1-.792-.197 1.063 1.063 0 0 1-.219-.167c-.264.24-.636.361-1.116.364h-3.891c-.177 0-.344-.03-.502-.091a1.321 1.321 0 0 1-.574-.43 1.204 1.204 0 0 1-.138-.229 1.529 1.529 0 0 1-.102-.301 1.66 1.66 0 0 1-.04-.382c0-.124.012-.258.036-.404.027-.148.055-.287.084-.418.031-.133.062-.247.091-.342l.054-.178.378.12.382.12a4.922 4.922 0 0 0-.138.51 6.44 6.44 0 0 0-.065.316 1.797 1.797 0 0 0-.026.276c0 .148.023.264.069.349.049.085.103.149.164.193a.528.528 0 0 0 .189.08c.063.01.111.014.145.014h3.859c.184 0 .326-.02.425-.058a.544.544 0 0 0 .222-.138.332.332 0 0 0 .08-.171c.007-.058.011-.107.011-.146v-1.207h.796v1.19c0 .123.026.22.076.29.051.07.111.124.179.16a.662.662 0 0 0 .203.066c.071.01.124.014.16.014h.269Zm-4.098 2.575a.51.51 0 0 1-.374-.157.501.501 0 0 1-.157-.374c0-.146.052-.27.157-.375a.51.51 0 0 1 .374-.156c.148 0 .273.052.375.156.104.105.156.23.156.375a.504.504 0 0 1-.156.374.504.504 0 0 1-.375.157Zm6.38-2.677.312-.509c.109-.177.223-.349.342-.516.121-.17.25-.33.386-.48.135-.153.28-.286.432-.4a1.93 1.93 0 0 1 .488-.273 1.5 1.5 0 0 1 .556-.102c.184 0 .365.032.542.095.177.06.334.158.472.29.139.132.25.303.335.514.085.208.127.461.127.76a1.793 1.793 0 0 1-.145.723h.789v.797h-4.244c-.087 0-.182-.008-.283-.022a2.719 2.719 0 0 1-.306-.062 2.94 2.94 0 0 1-.283-.098 1.093 1.093 0 0 1-.226-.128l-.054-.043c-.131.121-.286.21-.466.265a2.36 2.36 0 0 1-.629.088h-.589v-.797h.564a1.3 1.3 0 0 0 .378-.043.57.57 0 0 0 .214-.117.328.328 0 0 0 .098-.156.597.597 0 0 0 .026-.168v-1.232h.793v1.204a.39.39 0 0 0 .032.156.468.468 0 0 0 .208.222.287.287 0 0 0 .131.032Zm2.516-1.487a.877.877 0 0 0-.466.142 2.322 2.322 0 0 0-.447.37 4.27 4.27 0 0 0-.418.51c-.133.189-.258.378-.375.567h1.662a1.362 1.362 0 0 0 .204-.018c.044-.01.088-.023.134-.04a.75.75 0 0 0 .135-.066v.004a.806.806 0 0 0 .229-.233.715.715 0 0 0 .106-.37c0-.146-.021-.272-.062-.379a.754.754 0 0 0-.164-.272.618.618 0 0 0-.24-.16.803.803 0 0 0-.298-.055Zm4.045-.644.029.12.051.237c.021.094.042.199.061.313.022.114.042.229.059.345.019.114.035.226.047.335.012.106.018.2.018.28 0 .24-.04.448-.12.625a1.27 1.27 0 0 1-.742.69 1.45 1.45 0 0 1-.48.085h-.982v-.797h1.008a.963.963 0 0 0 .138-.014.472.472 0 0 0 .185-.073.509.509 0 0 0 .157-.182.675.675 0 0 0 .069-.335c0-.053-.005-.12-.015-.2a8.969 8.969 0 0 0-.145-.814 4.987 4.987 0 0 0-.051-.23l-.04-.155.753-.23Zm-.633-.952a.51.51 0 0 1-.375-.157.512.512 0 0 1-.156-.374c0-.148.052-.273.156-.375a.51.51 0 0 1 .375-.156.5.5 0 0 1 .374.156.5.5 0 0 1 .157.375c0 .145-.052.27-.157.374a.5.5 0 0 1-.374.157ZM111.401 26.346c.039.184.083.397.131.64.049.242.093.492.131.749.044.257.08.506.109.749.029.242.044.45.044.625 0 .48-.08.897-.24 1.251a2.55 2.55 0 0 1-.625.873 2.5 2.5 0 0 1-.859.51c-.32.11-.64.166-.96.166h-8.065c-.354 0-.689-.06-1.004-.181a2.623 2.623 0 0 1-1.149-.859 2.448 2.448 0 0 1-.276-.458c-.083-.18-.15-.38-.204-.603a3.36 3.36 0 0 1-.08-.764c0-.247.024-.516.073-.807.053-.296.109-.575.167-.837.063-.266.124-.494.182-.683.058-.194.095-.313.11-.357l1.519.48c-.034.102-.077.245-.131.43-.048.179-.097.375-.145.588-.049.209-.092.42-.131.633-.034.213-.051.398-.051.553 0 .296.046.528.138.698.097.17.206.298.327.386.126.082.253.135.379.16.126.019.223.029.29.029h8.102c.063 0 .155-.01.277-.03a.96.96 0 0 0 .371-.145c.121-.082.225-.203.312-.363.092-.16.138-.384.138-.67 0-.12-.012-.278-.036-.472a12.16 12.16 0 0 0-.094-.626 16.793 16.793 0 0 0-.131-.654 29.318 29.318 0 0 0-.124-.59l1.505-.421Zm-4.792 6.669c.281 0 .521.1.72.298a.98.98 0 0 1 .298.72.98.98 0 0 1-.298.72.982.982 0 0 1-.72.298.973.973 0 0 1-.713-.298.98.98 0 0 1-.298-.72.98.98 0 0 1 .298-.72.973.973 0 0 1 .713-.298Zm-2.931 0c.276 0 .514.1.713.298a.984.984 0 0 1 .298.72c0 .281-.1.521-.298.72a.974.974 0 0 1-.713.298.982.982 0 0 1-.72-.298.98.98 0 0 1-.298-.72.98.98 0 0 1 .298-.72.982.982 0 0 1 .72-.298Zm1.469 2.21c.262 0 .487.093.676.277.189.19.284.415.284.676a.909.909 0 0 1-.284.677.922.922 0 0 1-.676.284.932.932 0 0 1-.684-.284.92.92 0 0 1-.276-.676.945.945 0 0 1 .96-.953Zm10.296-3.316h-1.592V21.422h1.592V31.91Zm14.891-5.563c.038.184.082.397.13.64.049.242.093.492.131.749.044.257.08.506.109.749.03.242.044.45.044.625 0 .48-.08.897-.24 1.251a2.55 2.55 0 0 1-.625.873 2.49 2.49 0 0 1-.859.51c-.32.11-.64.166-.96.166h-8.065c-.354 0-.688-.06-1.004-.181a2.619 2.619 0 0 1-1.425-1.317c-.082-.18-.15-.38-.204-.603a3.377 3.377 0 0 1-.08-.764c0-.247.025-.516.073-.807.053-.296.109-.575.167-.837.063-.266.124-.494.182-.683.058-.194.095-.313.109-.357l1.52.48c-.034.102-.077.245-.131.43-.048.179-.097.375-.145.588-.049.209-.092.42-.131.633a3.583 3.583 0 0 0-.051.553c0 .296.046.528.138.698.097.17.206.298.327.386.127.082.253.135.379.16.126.019.223.029.291.029h8.101c.063 0 .156-.01.277-.03a.96.96 0 0 0 .371-.145c.121-.082.225-.203.312-.363.093-.16.139-.384.139-.67 0-.12-.013-.278-.037-.472a12.16 12.16 0 0 0-.094-.626 16.793 16.793 0 0 0-.131-.654 29.318 29.318 0 0 0-.124-.59l1.506-.421Zm-6.182 9.025a1.02 1.02 0 0 1-.749-.313 1.005 1.005 0 0 1-.313-.749c0-.29.104-.54.313-.749a1.02 1.02 0 0 1 .749-.312c.296 0 .545.104.749.312.208.209.313.459.313.75 0 .295-.105.545-.313.748a1.006 1.006 0 0 1-.749.313Zm8.674-1.149c.752 0 1.368-.053 1.848-.16.48-.107.858-.274 1.134-.502.112-.092.209-.191.291-.298.087-.102.158-.22.211-.356.058-.131.102-.279.131-.444.034-.16.053-.344.058-.553h-1.229c-.354 0-.713-.048-1.076-.145a2.818 2.818 0 0 1-.982-.502 2.674 2.674 0 0 1-.72-.924c-.184-.383-.277-.855-.277-1.418 0-.33.027-.625.08-.887a3.96 3.96 0 0 1 .219-.698c.087-.209.184-.388.29-.538.107-.15.211-.282.313-.393.277-.276.592-.49.946-.64a2.879 2.879 0 0 1 1.156-.233c.359 0 .693.056 1.004.168.315.111.596.278.843.501.335.315.587.713.757 1.193.174.48.261 1.055.261 1.724V31.8c0 .35-.026.67-.08.96a3.54 3.54 0 0 1-.24.808c-.101.247-.232.47-.392.669-.16.203-.349.392-.568.567-.218.17-.458.317-.72.444-.261.13-.555.237-.88.32a7.283 7.283 0 0 1-1.076.181 11.74 11.74 0 0 1-1.302.066v-1.593Zm2.393-7.098c-.446 0-.793.155-1.04.465-.247.306-.371.75-.371 1.331 0 .291.044.526.131.706.087.18.216.325.385.436.083.053.17.097.262.131a3.798 3.798 0 0 0 .509.116c.073.005.131.008.175.008h1.229v-1.2c0-.34-.024-.623-.073-.851a2.118 2.118 0 0 0-.189-.567 1.05 1.05 0 0 0-.262-.335.846.846 0 0 0-.283-.175.926.926 0 0 0-.269-.058 3.685 3.685 0 0 0-.204-.007Z"/></g><defs><clipPath id="a"><path fill="#fff" d="M0 0h162v48H0z"/></clipPath></defs></svg>