<svg xmlns="http://www.w3.org/2000/svg" xmlns:xlink="http://www.w3.org/1999/xlink" width="64" height="64"><defs><path id="a" d="M.16.03h9.67v3.81H.16z"/></defs><g fill="none" fill-rule="evenodd"><path d="M0 0h64v64H0z"/><path fill="#DCDDE0" d="M10.33 17.77v25.54l8.84 3.01v-25.5z"/><path fill="#B9BBC7" d="M38.18 15.81v25.51l-19.01 5v-25.5z"/><path fill="#CCE8E7" d="M13.96 22.92v4.45l2.1.71v-4.45z"/><path fill="#B9BBC7" d="m13.96 22.92-.35-.13v4.8l2.44.83v-.34l-2.09-.71z"/><path fill="#A0BCCA" d="M24.22 23.11v4.45l-2.09.72v-4.46z"/><path fill="#A1A9BC" d="m24.22 23.11.36-.12v4.8l-2.45.83v-.34l2.1-.72z"/><path fill="#A0BCCA" d="M30.07 21.61v4.45l-2.09.72v-4.46z"/><path fill="#A1A9BC" d="m30.07 21.61.36-.12v4.8l-2.45.83v-.34l2.1-.72z"/><path fill="#A0BCCA" d="M35.46 20.22v4.46l-2.09.7v-4.44z"/><path fill="#A1A9BC" d="m35.46 20.22.36-.12v4.8l-2.45.83v-.34l2.1-.71z"/><path fill="#FBFAFA" d="m29.35 12.8-19.02 4.97 8.84 3.04 19.01-5-8.83-3.01zM14 17.75l14.96-3.93 5.18 1.76-15 3.95L14 17.75z"/><path fill="#B9BBC7" d="m15.3 18.2 13.67-3.6v-.78L14 17.75z"/><path fill="#DCDDE0" d="M28.97 13.82v.78l3.87 1.32 1.31-.34z"/><path fill="#FFF" d="m15.3 18.2 3.85 1.33 13.7-3.6-3.88-1.33z"/><path fill="#DCDDE0" d="M19.17 32.03v14.3l8.84 3V35.09z"/><path fill="#B9BBC7" d="M47.02 30.08v14.26l-19.01 5V35.07z"/><path fill="#A0BCCA" d="M32.16 38v4.44l-2.09.72V38.7z"/><path fill="#A1A9BC" d="m32.16 38 .36-.13v4.8l-2.45.83v-.34l2.1-.72z"/><path fill="#FBFAFA" d="M27.99 33.79 22.85 32l14.96-3.93 5.18 1.76-15 3.95zm10.2-6.73-19.02 4.97L28 35.07l19.01-5-8.83-3z"/><path fill="#B9BBC7" d="m24.13 32.45 13.68-3.59v-.78l-14.97 3.93z"/><path fill="#DCDDE0" d="M37.8 28.08v.78l3.88 1.32 1.3-.34z"/><path fill="#FFF" d="M24.13 32.45 28 33.8l13.69-3.6-3.87-1.33z"/><path fill="#D2D3D6" d="M14.74 44.83v-9.6l9 3.06v9.6z"/><path fill="#CCE8E7" d="M15.94 36.89v6.87l3.23 1.1V38z"/><path fill="#B9BBC7" d="m15.94 36.89-.29-.1v7.18l3.52 1.29v-.4l-3.23-1.1z"/><path fill="#CCE8E7" d="M19.45 38.09v6.97l3.23 1.1v-6.97z"/><path fill="#B9BBC7" d="m19.45 38.09-.28-.1v7.27l3.51 1.29v-.4l-3.23-1.1z"/><path fill="#FAC7AE" d="M34.15 26.15v21.63l8.84 3.02V29.2z"/><path fill="#F398A0" d="M55.38 26v21.6l-12.4 3.2V29.2z"/><path fill="#BCD1D3" d="M33.56 23.87v2.3l9.34 3.2v-2.28z"/><path fill="#91B3C3" d="M42.9 27.09v2.27L56 25.98V23.7z"/><path fill="#E0EEEE" d="m33.56 23.91 9.34 3.22L56 23.75l-9.34-3.19-13.1 3.35zm3.88-.02 8.82-2.25 5.48 1.85-8.86 2.28-5.43-1.88z"/><path fill="#769AA8" d="m37.43 24.52 9.23-2.35v-1.02l-10.92 2.79z"/><path fill="#91B3C3" d="M46.66 21.15v1.02l5.06 1.73 1.72-.45z"/><path fill="#C8DBDA" d="m37.43 24.52 5.04 1.74 9.25-2.36-5.06-1.74z"/><path fill="#B2C7D0" d="M54.12 28.57v1.91l-9.87 2.55v-1.91zm0 2.99v1.9l-9.87 2.56V34.1zm0 3v1.92l-9.87 2.55V37.1z"/><path fill="#D37682" d="m54.12 28.57.2-.07v2.18l-10.07 2.56v-.2l9.87-2.56zm0 2.98.2-.06v2.18l-10.07 2.56v-.2l9.87-2.56zm0 3.01.2-.06v2.18l-10.07 2.56v-.2l9.87-2.56z"/><path fill="#9D9FA3" d="M19.17 32.03h14.98v-3.95zm14.98 1.43 4.08 15.88-4.08-1.56zm0-7.31 8.75 5.9 12.48-3.19v-2.87L42.9 29.37z" opacity=".32"/><path fill="#CCE8E7" d="M37.32 32.53V37l2.09.7v-4.44z"/><path fill="#DD9F87" d="m37.32 32.53-.36-.12v4.8l2.45.83v-.34l-2.1-.72z"/><g transform="translate(32.32 52.36)"><mask id="b" fill="#fff"><use xlink:href="#a"/></mask><path fill="#9D9FA3" fill-opacity=".12" d="M9.83 1.93C9.83 3 7.67 3.84 5 3.84S.16 2.99.16 1.94C.16.87 2.33.02 5 .02s4.83.85 4.83 1.9" mask="url(#b)"/></g><path fill="#FF867C" d="M37.77 54.3h-.97a.18.18 0 0 1-.18-.19v-2.58c0-.1.08-.18.18-.18h.97c.1 0 .17.08.17.18v2.58c0 .1-.08.18-.17.18"/><path fill="#60D3B5" d="M37.28 40.59c-5.75 6.65-5.24 12.23 0 12.23s5.93-5.5 0-12.23"/><path fill="#00AFAD" d="M37.28 52.82c5.25 0 5.93-5.5 0-12.23 0 0 3.73 10.15 0 12.23"/><path fill="#9D9FA3" fill-opacity=".12" d="M14.38 47.2c0 .66-1.35 1.2-3.03 1.2-1.67 0-3.03-.54-3.03-1.2S9.68 46 11.35 46s3.04.54 3.04 1.2"/><path fill="#FF867C" d="M11.64 47.2h-.61a.11.11 0 0 1-.11-.11v-1.63c0-.06.05-.1.1-.1h.62c.06 0 .1.04.1.1v1.63a.11.11 0 0 1-.1.1"/><path fill="#60D3B5" d="M11.33 38.6c-3.61 4.17-3.29 7.67 0 7.67 3.3 0 3.72-3.44 0-7.67"/><path fill="#00AFAD" d="M11.33 46.27c3.3 0 3.72-3.44 0-7.67 0 0 2.34 6.37 0 7.67"/></g></svg>