<svg xmlns="http://www.w3.org/2000/svg" width="200" height="200"><g fill="none" fill-rule="evenodd"><path d="M0 0h200v200H0z"/><path fill="#C9D0DE" d="m8 133.43 70.06 40.19 114.38-66.97-68.7-40.23z"/><path fill="#F9FBFC" d="M123.73 65 8 132.01l70.06 40.2 114.38-66.98L123.74 65z"/><path fill="#C9D0DE" fill-opacity=".32" d="m145.6 123.2 27.08-15.9-53.71-30.95L90.54 92.3zm-59.36 35.6 50.6-29.64-53.72-30.94-51.95 29.68z"/><path fill="#919BAA" fill-opacity=".32" d="m114.09 93.4-51.16 30.82 27.89-1.38-.19 17.42 53.16-31.15z"/><path fill="#FF6485" d="M133.7 99.76c-.67.4-.65-3.23-1.24-2.65L109.8 84.56l-.14 2.48c0 3.48-2.55 7.82-5.67 9.65l-43.5 25.48 29.58-1.46-.39 17.5 44.02-25.8c3.11-1.83 5.67-6.17 5.67-9.65 0-3.48-2.56-4.83-5.67-3"/><path fill="#CC3C66" d="M108.3 83.33c-1.04-.63-2.52-.56-4.15.4a9.88 9.88 0 0 0-1.95 1.53L131.9 101h.01a9.87 9.87 0 0 1 1.97-1.56c1.53-.9 2.92-1.02 3.94-.51L108.3 83.34zm29.73 15.97c.03 0 .05.02.07.04l-.07-.04z"/><path fill="#A52B54" d="M102.2 85.26v.63l29.53 15.63v-.62zm29.53 16.26s.27.2.53-.05c-.14-.25-.35-.48-.35-.48l-.18-.1v.63zm-41.65 36.02-.39.24v.84l1.12-.63zm-29.59-15.37v.94l29.56-1.45.02-.95z"/><path fill="#A52B54" d="m90.48 138.19-.39-.67 43.41-25.44c3.02-1.77 5.48-5.95 5.48-9.32 0-1.5-.5-2.6-1.4-3.11-.94-.54-2.29-.38-3.69.44-.03.03-.28.22-1.63 1.39l-.5-.58c1.6-1.39 1.69-1.44 1.74-1.47 1.68-.98 3.26-1.14 4.47-.45 1.15.66 1.78 2 1.78 3.78 0 3.61-2.63 8.09-5.86 9.98l-43.41 25.45z"/></g></svg>