<svg xmlns="http://www.w3.org/2000/svg" width="200" height="200"><g fill="none" fill-rule="evenodd"><path d="M0 0h200v200H0z"/><g fill-rule="nonzero"><path fill="#919BAA" d="m136.76 174.63-34.43-10.78-42.67-9.4-31.03-10.6 22.17-25.8 90.33 32.32z" opacity=".32"/><path fill="#EAEDEF" d="m20.8 127.84 38.68 25.86 42.85-52.95-38.67-25.87z"/><path fill="#F9FBFC" d="m59.48 153.7 38.42-4.93L141 95.82l-38.67 4.93z"/><path fill="#E9EDEF" d="m97.9 148.77 38.43 25.86 43.1-52.7L141 95.81z"/><path fill="#CBD0E0" d="m64.73 129.23 2.03 1.41 24.58-30.23-2.03-1.48zm13.5-8.82 2.03 1.41 14.84-18.21-2.03-1.48z"/><path fill="#E3E8F2" d="m77.46 136.36 2.15-.25L103.8 106h-2.22zm13.17-4.62 2.15-.25 8.88-11.08h-2.22zm11.03-14.04 2.15-.25 8.87-11.07h-2.22zm-14.54 12.16 2.15-.25 18.85-23.58h-2.22z"/><path fill="#E4E9EE" d="m104.83 140.46-6.09.67 19.46-24.37 6.4-.74z"/><path fill="#C9D0DE" d="m104.83 140.46 11.03 7.51 19.7-24.62-10.96-7.33zm-55.25-31.28 10.8 7.83L80.8 92.97l-10.74-7.65zm102.14 29.8 1.94 1.5 14.8-18.1-2.2-1.57z"/></g></g></svg>