<svg xmlns="http://www.w3.org/2000/svg" xmlns:xlink="http://www.w3.org/1999/xlink" width="64" height="64"><defs><path id="a" d="M0 .29h16.32v6.43H.01z"/><path id="c" d="M.25.1H.8v.42H.25z"/></defs><g fill="none" fill-rule="evenodd"><path d="M0 0h64v64H0z"/><path fill="#9D9FA3" fill-opacity=".12" d="M1.6 38.08c0 1.27 2.6 2.3 5.82 2.3 3.21 0 5.82-1.03 5.82-2.3 0-1.26-2.6-2.3-5.82-2.3-3.21 0-5.82 1.04-5.82 2.3"/><path fill="#FF867C" d="M6.84 38.08h1.24c.1 0 .18-.08.18-.17v-3.19a.18.18 0 0 0-.18-.18H6.84a.18.18 0 0 0-.18.18v3.19c0 .1.08.17.18.17"/><path fill="#60D3B5" d="M7.46 21.58c6.93 8.01 6.32 14.73 0 14.73s-7.14-6.62 0-14.73"/><path fill="#00AFAD" d="M7.46 36.31c-6.32 0-7.14-6.62 0-14.73 0 0-4.5 12.22 0 14.73"/><path fill="#D3C6BA" d="m37.47 29.53 15.38-5.6-.11 21.68-15.28 5.74z"/><path fill="#EDD9C8" d="M37.47 29.53v21.82l-26.5-9.64V19.88z"/><path fill="#D3C6BA" d="m26.34 14.28 26.5 9.65-15.38 5.6-26.5-9.65z"/><path fill="#F4E9E1" d="m37.46 27.09 8.67-3.18-19.76-7.19-8.66 3.15 19.75 7.22zm-26.5-7.21 3.4-1.23 11.93-4.37.02.01.08-.03 26.46 9.67L40.8 28.3l-3.34 1.22-3.34-1.22-19.8-7.2h-.03l-3.34-1.21.03-.01-.03-.01z"/><path fill="#BCADA0" d="m46.09 23.93-1.5.55-18.22-6.63V16.7zM26.37 16.7v1.15l-7.12 2.59-1.62-.56z"/><path fill="#D74928" d="m33.36 33.09-2.44-.89-5.68 8.92 2.44.89z"/><path fill="#60B1EF" d="M31.9 37.47V49.3l-7.69-2.8V34.63z"/><path fill="#3E7FBA" d="M24.21 36.55v9.96l.34.1V36.7z"/><path fill="#B6CCCA" d="M30.48 37.85v5.31l-4.85-1.77v-5.33z"/><g transform="translate(46.08 47.57)"><mask id="b" fill="#fff"><use xlink:href="#a"/></mask><path fill="#9D9FA3" fill-opacity=".12" d="M0 3.5c0 1.78 3.66 3.22 8.16 3.22s8.16-1.44 8.16-3.22C16.32 1.73 12.67.3 8.16.3S.01 1.73.01 3.5" mask="url(#b)"/></g><path fill="#FF867C" d="M53.36 51.08h1.88c.1 0 .17-.08.17-.18v-4.6a.18.18 0 0 0-.17-.19h-1.88a.18.18 0 0 0-.18.18v4.6c0 .1.08.19.18.19"/><path fill="#60D3B5" d="M54.3 27.95c9.71 11.23 8.85 20.65 0 20.65s-10-9.28 0-20.66"/><path fill="#00AFAD" d="M54.3 48.6c-8.86 0-10-9.28 0-20.65 0 0-6.3 17.13 0 20.64"/><path fill="#DDAA1B" d="M31.44 15.1v10.04l-13.36-4.86V10.24z"/><path fill="#FFCC2B" d="M30.9 15.32v10.04l-13.37-4.87V10.45z"/><path fill="#F7D881" d="M30.09 16.04v8.16l-11.75-4.27v-8.17z"/><g transform="translate(17.28 10.13)"><mask id="d" fill="#fff"><use xlink:href="#c"/></mask><path fill="#DDAA1B" d="M.25.32.8.1v.4z" mask="url(#d)"/></g><path fill="#DDAA1B" d="m31.44 25.14-.54-.2v.42zm-2.14-.36v1.11l-.49-.18V24.6z"/><path fill="#846414" d="M29.63 24.9v.79l-.33.2v-1.11z"/><path fill="#DDAA1B" d="M19.57 21.25v1.12l-.49-.18v-1.12z"/><path fill="#846414" d="M19.9 21.37v.8l-.33.2v-1.12z"/><path fill="#3E7FBA" d="m24.55 46.61 7.35 2.7v-.32l-7.35-2.73z"/><path fill="#60B1EF" d="M21.93 32v9.92l-9.27-3.37V28.6z"/><path fill="#3E7FBA" d="M12.66 28.6v9.95l.3.1v-9.92z"/><path fill="#B6CCCA" d="M20.8 34.12v6.25l-6.72-2.47v-6.28z"/><path fill="#3E7FBA" d="m12.96 38.67 8.97 3.25v-.32l-8.97-3.28z"/><path fill="#B5B8B9" d="M26.15 42.86c-.03.18-.19.26-.35.17a.47.47 0 0 1-.24-.47c.03-.18.2-.25.36-.17a.47.47 0 0 1 .23.47"/><path fill="#E3DCD3" d="M26.06 42.9c-.03.17-.19.25-.35.16a.47.47 0 0 1-.24-.47c.03-.17.2-.25.36-.17.16.08.27.3.23.47"/><path fill="#000" d="m33.36 38.02-5.62 9.76-16.78-6.07v-8.17z" opacity=".12"/><path fill="#D74928" d="M33.36 31.17a8.63 8.63 0 0 0-5.68 8.1v.82l5.68-2.07v-6.85z"/><path fill="#FF5D3A" d="m30.92 30.29 2.44.88c-.41.15-.8.33-1.19.54l-.04.02-.2.12-.1.06-.17.1-.13.09a11.69 11.69 0 0 0-.4.28 8.5 8.5 0 0 0-.16.13l-.05.03a8.63 8.63 0 0 0-3.24 6.74v.8l-2.43-.87v-.81a8.63 8.63 0 0 1 5.67-8.11"/><path fill="#F3F1EB" d="m28.45 29.4 2.45.88c-.42.15-.81.33-1.2.54l-.04.02-.2.12-.1.06-.16.1-.14.1a11.69 11.69 0 0 0-.4.27 8.5 8.5 0 0 0-.16.13l-.04.03a8.63 8.63 0 0 0-3.23 6.23v.03a8.55 8.55 0 0 0-.01.48v.8l-2.44-.87v-.8a8.63 8.63 0 0 1 5.67-8.12"/><path fill="#FF5D3A" d="m26.01 28.52 2.45.88c-.42.15-.82.33-1.2.54l-.04.02-.2.12-.1.06-.17.1-.13.09a11.69 11.69 0 0 0-.4.28 8.5 8.5 0 0 0-.16.13l-.05.03A8.63 8.63 0 0 0 22.8 37v.03a8.53 8.53 0 0 0-.01.48v.8l-2.44-.87v-.81A8.63 8.63 0 0 1 26 28.52"/><path fill="#F3F1EB" d="m23.55 27.63 2.44.88a8.66 8.66 0 0 0-1.2.54l-.03.02a7.42 7.42 0 0 0-.3.18l-.17.1-.14.1a8.5 8.5 0 0 0-.56.4l-.04.03a8.63 8.63 0 0 0-3.22 6.23v.03c-.02.16-.02.32-.02.48v.81l-2.44-.88v-.8a8.63 8.63 0 0 1 5.68-8.12"/><path fill="#FF5D3A" d="m21.1 26.75 2.45.88c-.42.15-.81.33-1.2.54l-.04.02-.2.12-.1.06-.16.1-.14.09a11.69 11.69 0 0 0-.39.28 8.5 8.5 0 0 0-.17.13l-.04.03a8.63 8.63 0 0 0-3.23 6.23v.03l-.01.48v.8l-2.44-.87v-.81a8.63 8.63 0 0 1 5.68-8.11"/><path fill="#F3F1EB" d="m18.64 25.86 2.44.88c-.41.15-.81.33-1.19.54l-.04.02-.21.12-.1.06-.16.1-.13.1a11.69 11.69 0 0 0-.4.27 8.5 8.5 0 0 0-.17.13l-.04.03a8.63 8.63 0 0 0-3.22 6.23v.03l-.02.48v.8l-2.44-.87v-.8a8.63 8.63 0 0 1 5.68-8.12"/><path fill="#FF5D3A" d="m16.2 24.98 2.44.88a8.66 8.66 0 0 0-1.19.54l-.04.02-.21.12-.1.06-.16.1-.13.09a8.5 8.5 0 0 0-.57.4l-.04.04a8.63 8.63 0 0 0-3.22 6.23v.03l-.02.48v.8l-2.44-.87v-.81a8.63 8.63 0 0 1 5.68-8.11m9.02 14.2v.1c0 .47.3.9.75 1.06l1.18.44a.4.4 0 0 0 .53-.38v-.33l-2.46-.89z"/><path fill="#F3F1EB" d="M22.78 38.3v.1c0 .47.3.9.74 1.06l1.2.43a.4.4 0 0 0 .52-.37v-.33l-2.46-.89z"/><path fill="#FF5D3A" d="M20.3 37.41v.1c0 .47.3.9.76 1.06l1.18.44a.4.4 0 0 0 .53-.38v-.33l-2.46-.89z"/><path fill="#F3F1EB" d="M17.86 36.5v.09c0 .48.3.9.75 1.07l1.18.43a.4.4 0 0 0 .53-.37v-.33l-2.46-.9z"/><path fill="#FF5D3A" d="M15.37 35.61v.1c0 .47.3.9.75 1.06l1.19.43a.4.4 0 0 0 .53-.37v-.33l-2.47-.89z"/><path fill="#F3F1EB" d="M12.94 34.74v.09c0 .48.3.9.75 1.07l1.2.43a.4.4 0 0 0 .52-.37v-.34l-2.47-.88z"/><path fill="#FF5D3A" d="M10.5 33.85v.09c0 .48.3.9.76 1.07l1.19.43a.4.4 0 0 0 .53-.37v-.33l-2.47-.9z"/></g></svg>